<?xml version="1.0" encoding="UTF-8"?>
<svg xmlns="http://www.w3.org/2000/svg" xmlns:xlink="http://www.w3.org/1999/xlink" width="263.009pt" height="398.177pt" viewBox="0 0 263.009 398.177" version="1.1">
<defs>
<clipPath id="clip1">
  <path d="M 0 1 L 263.007813 1 L 263.007813 398.175781 L 0 398.175781 Z M 0 1 "/>
</clipPath>
</defs>
<g id="surface1">
<g clip-path="url(#clip1)" clip-rule="nonzero">
<path style=" stroke:none;fill-rule:nonzero;fill:rgb(5.882263%,22.744751%,36.862183%);fill-opacity:1;" d="M 13.949219 5.652344 C 67.285156 25.9375 101.457031 75.078125 101.769531 132.339844 C 102.007813 176.164063 101.6875 219.992188 101.90625 263.824219 C 101.996094 281.867188 111.578125 293.785156 126.554688 295.734375 C 139.808594 297.460938 151.078125 291.988281 156.886719 281.027344 C 162.679688 270.109375 161.445313 257.425781 153.707031 248.371094 C 145.230469 238.445313 130.398438 234.585938 118.019531 239.226563 C 115.519531 240.164063 113.148438 241.4375 109.917969 243.023438 C 109.179688 243.382813 108.300781 242.832031 108.300781 242.011719 L 108.300781 178.496094 C 108.308594 167.542969 108.578125 156.574219 108.203125 145.632813 C 107.988281 139.472656 109.96875 137.023438 116.375 136.308594 C 189.90625 128.050781 255.804688 183.246094 262.539063 259.007813 C 268.785156 329.238281 211.734375 393.515625 139.253906 397.921875 C 65.332031 402.414063 2.054688 347.3125 0.394531 273.191406 C 0.296875 268.738281 0.117188 259.140625 0.117188 259.140625 L 0 3.082031 C 0 2.375 0.640625 1.851563 1.332031 1.988281 C 3.148438 2.351563 7 3.289063 13.949219 5.652344 "/>
</g>
</g>
</svg>
