<?xml version="1.0" encoding="UTF-8" standalone="no"?>
<svg
   id="Layer_1"
   data-name="Layer 1"
   viewBox="0 0 200.61992 60.565693"
   version="1.1"
   sodipodi:docname="blueye_sdk_logo_darkblue.svg"
   width="200.61992"
   height="60.565693"
   inkscape:version="1.3 (0e150ed6c4, 2023-07-21)"
   xmlns:inkscape="http://www.inkscape.org/namespaces/inkscape"
   xmlns:sodipodi="http://sodipodi.sourceforge.net/DTD/sodipodi-0.dtd"
   xmlns="http://www.w3.org/2000/svg"
   xmlns:svg="http://www.w3.org/2000/svg">
  <sodipodi:namedview
     id="namedview9"
     pagecolor="#ffffff"
     bordercolor="#666666"
     borderopacity="1.0"
     inkscape:showpageshadow="2"
     inkscape:pageopacity="0.0"
     inkscape:pagecheckerboard="0"
     inkscape:deskcolor="#d1d1d1"
     inkscape:zoom="3.1892085"
     inkscape:cx="87.796078"
     inkscape:cy="17.402437"
     inkscape:window-width="2669"
     inkscape:window-height="1135"
     inkscape:window-x="10"
     inkscape:window-y="10"
     inkscape:window-maximized="1"
     inkscape:current-layer="Layer_1" />
  <defs
     id="defs1">
    <style
       id="style1">.cls-1{fill:#10395e;}</style>
  </defs>
  <path
     class="cls-1"
     d="m 10.359916,18.935201 v 9 a 0.09,0.09 0 0 0 0.13,0.09 2.46,2.46 0 0 1 1.09,-0.19 2.41,2.41 0 1 1 -2.5599995,2.16 v -18.54 c 0,-6.6300005 -3.48,-10.2300005 -8.88000002,-11.4500005 a 0.09,0.09 0 0 0 -0.12,0.09 V 27.095201 a 30.39,30.39 0 0 0 0.43,6.31 11.4,11.4 0 1 0 9.99999952,-14.51 0.09,0.09 0 0 0 -0.09,0.09"
     id="path1" />
  <path
     class="cls-1"
     d="m 33.639916,28.095201 v 1.9 a 2.39,2.39 0 0 0 2.31,2.65 0.11,0.11 0 0 1 0.09,0.1 v 8.81 a 0.11,0.11 0 0 1 -0.1,0.1 h -0.1 a 11.39,11.39 0 0 1 -10.76,-8.26 30.47,30.47 0 0 1 -0.43,-6.32 V 5.7952005 a 0.1,0.1 0 0 1 0.09,-0.1 h 8.81 a 0.11,0.11 0 0 1 0.1,0.1 z"
     id="path2" />
  <path
     class="cls-1"
     d="m 49.279916,41.705201 h 0.18 a 11.38,11.38 0 0 0 10.76,-8.26 30,30 0 0 0 0.44,-6.32 v -7.64 a 0.1,0.1 0 0 0 -0.1,-0.09 h -8.81 a 0.09,0.09 0 0 0 -0.09,0.09 v 10.51 a 2.4,2.4 0 0 1 -2.31,2.71 h -0.16 a 2.4,2.4 0 0 1 -2.3,-2.66 v -10.56 a 0.1,0.1 0 0 0 -0.1,-0.09 h -8.84 a 0.09,0.09 0 0 0 -0.1,0.09 v 7.58 a 30.47,30.47 0 0 0 0.43,6.32 11.39,11.39 0 0 0 10.76,8.26 z"
     id="path3" />
  <path
     class="cls-1"
     d="m 73.949916,25.395201 a 4.87,4.87 0 0 1 4.11,2.31 0.1,0.1 0 0 1 -0.09,0.14 h -8.13 a 0.09,0.09 0 0 1 -0.08,-0.14 4.86,4.86 0 0 1 4.19,-2.31 m 0,-6.52 a 11.39,11.39 0 1 0 10.71,15.25 0.1,0.1 0 0 0 -0.09,-0.13 h -7.51 -0.06 a 4.87,4.87 0 0 1 -7.25,-1.22 0.1,0.1 0 0 1 0.09,-0.15 h 15.11 a 0.09,0.09 0 0 0 0.09,-0.08 11.57,11.57 0 0 0 0.24,-2.3 11.39,11.39 0 0 0 -11.33,-11.37"
     id="path4" />
  <path
     class="cls-1"
     d="m 123.16992,25.395201 a 4.87,4.87 0 0 1 4.15,2.31 0.1,0.1 0 0 1 -0.09,0.14 h -8.13 a 0.09,0.09 0 0 1 -0.08,-0.14 4.86,4.86 0 0 1 4.15,-2.33 m 0,-6.52 a 11.39,11.39 0 1 0 10.71,15.25 0.1,0.1 0 0 0 -0.09,-0.13 h -7.47 -0.06 a 4.87,4.87 0 0 1 -7.25,-1.22 0.1,0.1 0 0 1 0.09,-0.15 h 15.13 a 0.09,0.09 0 0 0 0.09,-0.08 11.57,11.57 0 0 0 0.24,-2.3 11.39,11.39 0 0 0 -11.39,-11.39"
     id="path5" />
  <path
     class="cls-1"
     d="m 109.82992,19.395201 h -8.8 a 0.09,0.09 0 0 0 -0.1,0.09 v 10.51 a 2.4,2.4 0 0 1 -2.310004,2.71 h -0.16 a 2.4,2.4 0 0 1 -2.3,-2.66 v -10.56 a 0.1,0.1 0 0 0 -0.1,-0.09 h -8.8 a 0.09,0.09 0 0 0 -0.1,0.09 v 7.58 a 30.47,30.47 0 0 0 0.43,6.32 11.41,11.41 0 0 0 10.76,8.32 h 0.39 a 12.14,12.14 0 0 0 2.190004,-0.26 v 7.67 c 0,6.63 3.48,10.22 8.88,11.45 a 0.11,0.11 0 0 0 0.12,-0.1 v -40.98 a 0.1,0.1 0 0 0 -0.1,-0.09"
     id="path6" />
  <path
     class="cls-1"
     d="m 154.61992,24.515201 c 0,-3.39 2,-5.31 6.33,-5.31 4.33,0 6.36,1.5 6.36,5.5 h -2.36 c 0,-2.61 -1.11,-3.42 -3.93,-3.42 -2.67,0 -4,1 -4,3.21 0,2.21 0.84,3.12 4.35,3.6 5.13,0.69 6.39,2.28 6.39,5.64 0,3.9 -2.07,5.55 -6.75,5.55 -4.17,0 -6.66,-1.29 -6.66,-5.58 h 2.4 c 0,2.76 1.41,3.48 4.26,3.48 3.24,0 4.32,-1 4.32,-3.45 0,-2.28 -0.6,-3.24 -4.68,-3.81 -4.38,-0.58 -6.03,-2.11 -6.03,-5.41 z"
     id="path7" />
  <path
     class="cls-1"
     d="m 171.36992,39.005201 v -19.5 h 5.88 c 4.65,0 7.23,1.32 7.23,7 v 5.58 c 0,5.64 -2.58,7 -7.23,7 z m 2.4,-17.4 v 15.3 h 3.45 c 3.27,0 4.86,-1 4.86,-4.74 v -5.88 c 0,-4 -1.77,-4.68 -4.86,-4.68 z"
     id="path8" />
  <path
     class="cls-1"
     d="m 192.81992,28.985201 7.8,10 h -2.88 a 101.13,101.13 0 0 0 -7,-8.94 v 8.96 h -2.4 v -19.5 h 2.4 v 8.64 l 6.78,-8.64 h 2.91 z"
     id="path9" />
</svg>
