<?xml version="1.0" encoding="utf-8" standalone="no"?>
<!DOCTYPE svg PUBLIC "-//W3C//DTD SVG 1.1//EN"
  "http://www.w3.org/Graphics/SVG/1.1/DTD/svg11.dtd">
<!-- Created with matplotlib (https://matplotlib.org/) -->
<svg height="345.6pt" version="1.1" viewBox="0 0 460.8 345.6" width="460.8pt" xmlns="http://www.w3.org/2000/svg" xmlns:xlink="http://www.w3.org/1999/xlink">
 <defs>
  <style type="text/css">
*{stroke-linecap:butt;stroke-linejoin:round;}
  </style>
 </defs>
 <g id="figure_1">
  <g id="patch_1">
   <path d="M 0 345.6 
L 460.8 345.6 
L 460.8 0 
L 0 0 
z
" style="fill:#ffffff;"/>
  </g>
  <g id="axes_1">
   <g id="patch_2">
    <path d="M 57.6 307.584 
L 414.72 307.584 
L 414.72 41.472 
L 57.6 41.472 
z
" style="fill:#ffffff;"/>
   </g>
   <g id="matplotlib.axis_1">
    <g id="xtick_1">
     <g id="line2d_1">
      <defs>
       <path d="M 0 0 
L 0 3.5 
" id="m7ed3ca7869" style="stroke:#000000;stroke-width:0.8;"/>
      </defs>
      <g>
       <use style="stroke:#000000;stroke-width:0.8;" x="81.92926" xlink:href="#m7ed3ca7869" y="307.584"/>
      </g>
     </g>
     <g id="text_1">
      <!-- 09 13:25 -->
      <defs>
       <path d="M 31.78125 66.40625 
Q 24.171875 66.40625 20.328125 58.90625 
Q 16.5 51.421875 16.5 36.375 
Q 16.5 21.390625 20.328125 13.890625 
Q 24.171875 6.390625 31.78125 6.390625 
Q 39.453125 6.390625 43.28125 13.890625 
Q 47.125 21.390625 47.125 36.375 
Q 47.125 51.421875 43.28125 58.90625 
Q 39.453125 66.40625 31.78125 66.40625 
z
M 31.78125 74.21875 
Q 44.046875 74.21875 50.515625 64.515625 
Q 56.984375 54.828125 56.984375 36.375 
Q 56.984375 17.96875 50.515625 8.265625 
Q 44.046875 -1.421875 31.78125 -1.421875 
Q 19.53125 -1.421875 13.0625 8.265625 
Q 6.59375 17.96875 6.59375 36.375 
Q 6.59375 54.828125 13.0625 64.515625 
Q 19.53125 74.21875 31.78125 74.21875 
z
" id="DejaVuSans-48"/>
       <path d="M 10.984375 1.515625 
L 10.984375 10.5 
Q 14.703125 8.734375 18.5 7.8125 
Q 22.3125 6.890625 25.984375 6.890625 
Q 35.75 6.890625 40.890625 13.453125 
Q 46.046875 20.015625 46.78125 33.40625 
Q 43.953125 29.203125 39.59375 26.953125 
Q 35.25 24.703125 29.984375 24.703125 
Q 19.046875 24.703125 12.671875 31.3125 
Q 6.296875 37.9375 6.296875 49.421875 
Q 6.296875 60.640625 12.9375 67.421875 
Q 19.578125 74.21875 30.609375 74.21875 
Q 43.265625 74.21875 49.921875 64.515625 
Q 56.59375 54.828125 56.59375 36.375 
Q 56.59375 19.140625 48.40625 8.859375 
Q 40.234375 -1.421875 26.421875 -1.421875 
Q 22.703125 -1.421875 18.890625 -0.6875 
Q 15.09375 0.046875 10.984375 1.515625 
z
M 30.609375 32.421875 
Q 37.25 32.421875 41.125 36.953125 
Q 45.015625 41.5 45.015625 49.421875 
Q 45.015625 57.28125 41.125 61.84375 
Q 37.25 66.40625 30.609375 66.40625 
Q 23.96875 66.40625 20.09375 61.84375 
Q 16.21875 57.28125 16.21875 49.421875 
Q 16.21875 41.5 20.09375 36.953125 
Q 23.96875 32.421875 30.609375 32.421875 
z
" id="DejaVuSans-57"/>
       <path id="DejaVuSans-32"/>
       <path d="M 12.40625 8.296875 
L 28.515625 8.296875 
L 28.515625 63.921875 
L 10.984375 60.40625 
L 10.984375 69.390625 
L 28.421875 72.90625 
L 38.28125 72.90625 
L 38.28125 8.296875 
L 54.390625 8.296875 
L 54.390625 0 
L 12.40625 0 
z
" id="DejaVuSans-49"/>
       <path d="M 40.578125 39.3125 
Q 47.65625 37.796875 51.625 33 
Q 55.609375 28.21875 55.609375 21.1875 
Q 55.609375 10.40625 48.1875 4.484375 
Q 40.765625 -1.421875 27.09375 -1.421875 
Q 22.515625 -1.421875 17.65625 -0.515625 
Q 12.796875 0.390625 7.625 2.203125 
L 7.625 11.71875 
Q 11.71875 9.328125 16.59375 8.109375 
Q 21.484375 6.890625 26.8125 6.890625 
Q 36.078125 6.890625 40.9375 10.546875 
Q 45.796875 14.203125 45.796875 21.1875 
Q 45.796875 27.640625 41.28125 31.265625 
Q 36.765625 34.90625 28.71875 34.90625 
L 20.21875 34.90625 
L 20.21875 43.015625 
L 29.109375 43.015625 
Q 36.375 43.015625 40.234375 45.921875 
Q 44.09375 48.828125 44.09375 54.296875 
Q 44.09375 59.90625 40.109375 62.90625 
Q 36.140625 65.921875 28.71875 65.921875 
Q 24.65625 65.921875 20.015625 65.03125 
Q 15.375 64.15625 9.8125 62.3125 
L 9.8125 71.09375 
Q 15.4375 72.65625 20.34375 73.4375 
Q 25.25 74.21875 29.59375 74.21875 
Q 40.828125 74.21875 47.359375 69.109375 
Q 53.90625 64.015625 53.90625 55.328125 
Q 53.90625 49.265625 50.4375 45.09375 
Q 46.96875 40.921875 40.578125 39.3125 
z
" id="DejaVuSans-51"/>
       <path d="M 11.71875 12.40625 
L 22.015625 12.40625 
L 22.015625 0 
L 11.71875 0 
z
M 11.71875 51.703125 
L 22.015625 51.703125 
L 22.015625 39.3125 
L 11.71875 39.3125 
z
" id="DejaVuSans-58"/>
       <path d="M 19.1875 8.296875 
L 53.609375 8.296875 
L 53.609375 0 
L 7.328125 0 
L 7.328125 8.296875 
Q 12.9375 14.109375 22.625 23.890625 
Q 32.328125 33.6875 34.8125 36.53125 
Q 39.546875 41.84375 41.421875 45.53125 
Q 43.3125 49.21875 43.3125 52.78125 
Q 43.3125 58.59375 39.234375 62.25 
Q 35.15625 65.921875 28.609375 65.921875 
Q 23.96875 65.921875 18.8125 64.3125 
Q 13.671875 62.703125 7.8125 59.421875 
L 7.8125 69.390625 
Q 13.765625 71.78125 18.9375 73 
Q 24.125 74.21875 28.421875 74.21875 
Q 39.75 74.21875 46.484375 68.546875 
Q 53.21875 62.890625 53.21875 53.421875 
Q 53.21875 48.921875 51.53125 44.890625 
Q 49.859375 40.875 45.40625 35.40625 
Q 44.1875 33.984375 37.640625 27.21875 
Q 31.109375 20.453125 19.1875 8.296875 
z
" id="DejaVuSans-50"/>
       <path d="M 10.796875 72.90625 
L 49.515625 72.90625 
L 49.515625 64.59375 
L 19.828125 64.59375 
L 19.828125 46.734375 
Q 21.96875 47.46875 24.109375 47.828125 
Q 26.265625 48.1875 28.421875 48.1875 
Q 40.625 48.1875 47.75 41.5 
Q 54.890625 34.8125 54.890625 23.390625 
Q 54.890625 11.625 47.5625 5.09375 
Q 40.234375 -1.421875 26.90625 -1.421875 
Q 22.3125 -1.421875 17.546875 -0.640625 
Q 12.796875 0.140625 7.71875 1.703125 
L 7.71875 11.625 
Q 12.109375 9.234375 16.796875 8.0625 
Q 21.484375 6.890625 26.703125 6.890625 
Q 35.15625 6.890625 40.078125 11.328125 
Q 45.015625 15.765625 45.015625 23.390625 
Q 45.015625 31 40.078125 35.4375 
Q 35.15625 39.890625 26.703125 39.890625 
Q 22.75 39.890625 18.8125 39.015625 
Q 14.890625 38.140625 10.796875 36.28125 
z
" id="DejaVuSans-53"/>
      </defs>
      <g transform="translate(59.568323 322.182437)scale(0.1 -0.1)">
       <use xlink:href="#DejaVuSans-48"/>
       <use x="63.623047" xlink:href="#DejaVuSans-57"/>
       <use x="127.246094" xlink:href="#DejaVuSans-32"/>
       <use x="159.033203" xlink:href="#DejaVuSans-49"/>
       <use x="222.65625" xlink:href="#DejaVuSans-51"/>
       <use x="286.279297" xlink:href="#DejaVuSans-58"/>
       <use x="319.970703" xlink:href="#DejaVuSans-50"/>
       <use x="383.59375" xlink:href="#DejaVuSans-53"/>
      </g>
     </g>
    </g>
    <g id="xtick_2">
     <g id="line2d_2">
      <g>
       <use style="stroke:#000000;stroke-width:0.8;" x="189.811687" xlink:href="#m7ed3ca7869" y="307.584"/>
      </g>
     </g>
     <g id="text_2">
      <!-- 09 13:30 -->
      <g transform="translate(167.45075 322.182437)scale(0.1 -0.1)">
       <use xlink:href="#DejaVuSans-48"/>
       <use x="63.623047" xlink:href="#DejaVuSans-57"/>
       <use x="127.246094" xlink:href="#DejaVuSans-32"/>
       <use x="159.033203" xlink:href="#DejaVuSans-49"/>
       <use x="222.65625" xlink:href="#DejaVuSans-51"/>
       <use x="286.279297" xlink:href="#DejaVuSans-58"/>
       <use x="319.970703" xlink:href="#DejaVuSans-51"/>
       <use x="383.59375" xlink:href="#DejaVuSans-48"/>
      </g>
     </g>
    </g>
    <g id="xtick_3">
     <g id="line2d_3">
      <g>
       <use style="stroke:#000000;stroke-width:0.8;" x="297.694118" xlink:href="#m7ed3ca7869" y="307.584"/>
      </g>
     </g>
     <g id="text_3">
      <!-- 09 13:35 -->
      <g transform="translate(275.333181 322.182437)scale(0.1 -0.1)">
       <use xlink:href="#DejaVuSans-48"/>
       <use x="63.623047" xlink:href="#DejaVuSans-57"/>
       <use x="127.246094" xlink:href="#DejaVuSans-32"/>
       <use x="159.033203" xlink:href="#DejaVuSans-49"/>
       <use x="222.65625" xlink:href="#DejaVuSans-51"/>
       <use x="286.279297" xlink:href="#DejaVuSans-58"/>
       <use x="319.970703" xlink:href="#DejaVuSans-51"/>
       <use x="383.59375" xlink:href="#DejaVuSans-53"/>
      </g>
     </g>
    </g>
    <g id="xtick_4">
     <g id="line2d_4">
      <g>
       <use style="stroke:#000000;stroke-width:0.8;" x="405.576546" xlink:href="#m7ed3ca7869" y="307.584"/>
      </g>
     </g>
     <g id="text_4">
      <!-- 09 13:40 -->
      <defs>
       <path d="M 37.796875 64.3125 
L 12.890625 25.390625 
L 37.796875 25.390625 
z
M 35.203125 72.90625 
L 47.609375 72.90625 
L 47.609375 25.390625 
L 58.015625 25.390625 
L 58.015625 17.1875 
L 47.609375 17.1875 
L 47.609375 0 
L 37.796875 0 
L 37.796875 17.1875 
L 4.890625 17.1875 
L 4.890625 26.703125 
z
" id="DejaVuSans-52"/>
      </defs>
      <g transform="translate(383.215608 322.182437)scale(0.1 -0.1)">
       <use xlink:href="#DejaVuSans-48"/>
       <use x="63.623047" xlink:href="#DejaVuSans-57"/>
       <use x="127.246094" xlink:href="#DejaVuSans-32"/>
       <use x="159.033203" xlink:href="#DejaVuSans-49"/>
       <use x="222.65625" xlink:href="#DejaVuSans-51"/>
       <use x="286.279297" xlink:href="#DejaVuSans-58"/>
       <use x="319.970703" xlink:href="#DejaVuSans-52"/>
       <use x="383.59375" xlink:href="#DejaVuSans-48"/>
      </g>
     </g>
    </g>
    <g id="text_5">
     <!-- Time -->
     <defs>
      <path d="M -0.296875 72.90625 
L 61.375 72.90625 
L 61.375 64.59375 
L 35.5 64.59375 
L 35.5 0 
L 25.59375 0 
L 25.59375 64.59375 
L -0.296875 64.59375 
z
" id="DejaVuSans-84"/>
      <path d="M 9.421875 54.6875 
L 18.40625 54.6875 
L 18.40625 0 
L 9.421875 0 
z
M 9.421875 75.984375 
L 18.40625 75.984375 
L 18.40625 64.59375 
L 9.421875 64.59375 
z
" id="DejaVuSans-105"/>
      <path d="M 52 44.1875 
Q 55.375 50.25 60.0625 53.125 
Q 64.75 56 71.09375 56 
Q 79.640625 56 84.28125 50.015625 
Q 88.921875 44.046875 88.921875 33.015625 
L 88.921875 0 
L 79.890625 0 
L 79.890625 32.71875 
Q 79.890625 40.578125 77.09375 44.375 
Q 74.3125 48.1875 68.609375 48.1875 
Q 61.625 48.1875 57.5625 43.546875 
Q 53.515625 38.921875 53.515625 30.90625 
L 53.515625 0 
L 44.484375 0 
L 44.484375 32.71875 
Q 44.484375 40.625 41.703125 44.40625 
Q 38.921875 48.1875 33.109375 48.1875 
Q 26.21875 48.1875 22.15625 43.53125 
Q 18.109375 38.875 18.109375 30.90625 
L 18.109375 0 
L 9.078125 0 
L 9.078125 54.6875 
L 18.109375 54.6875 
L 18.109375 46.1875 
Q 21.1875 51.21875 25.484375 53.609375 
Q 29.78125 56 35.6875 56 
Q 41.65625 56 45.828125 52.96875 
Q 50 49.953125 52 44.1875 
z
" id="DejaVuSans-109"/>
      <path d="M 56.203125 29.59375 
L 56.203125 25.203125 
L 14.890625 25.203125 
Q 15.484375 15.921875 20.484375 11.0625 
Q 25.484375 6.203125 34.421875 6.203125 
Q 39.59375 6.203125 44.453125 7.46875 
Q 49.3125 8.734375 54.109375 11.28125 
L 54.109375 2.78125 
Q 49.265625 0.734375 44.1875 -0.34375 
Q 39.109375 -1.421875 33.890625 -1.421875 
Q 20.796875 -1.421875 13.15625 6.1875 
Q 5.515625 13.8125 5.515625 26.8125 
Q 5.515625 40.234375 12.765625 48.109375 
Q 20.015625 56 32.328125 56 
Q 43.359375 56 49.78125 48.890625 
Q 56.203125 41.796875 56.203125 29.59375 
z
M 47.21875 32.234375 
Q 47.125 39.59375 43.09375 43.984375 
Q 39.0625 48.390625 32.421875 48.390625 
Q 24.90625 48.390625 20.390625 44.140625 
Q 15.875 39.890625 15.1875 32.171875 
z
" id="DejaVuSans-101"/>
     </defs>
     <g transform="translate(223.7725 335.860562)scale(0.1 -0.1)">
      <use xlink:href="#DejaVuSans-84"/>
      <use x="61.037109" xlink:href="#DejaVuSans-105"/>
      <use x="88.820312" xlink:href="#DejaVuSans-109"/>
      <use x="186.232422" xlink:href="#DejaVuSans-101"/>
     </g>
    </g>
   </g>
   <g id="matplotlib.axis_2">
    <g id="ytick_1">
     <g id="line2d_5">
      <defs>
       <path d="M 0 0 
L -3.5 0 
" id="m3860f4dafe" style="stroke:#000000;stroke-width:0.8;"/>
      </defs>
      <g>
       <use style="stroke:#000000;stroke-width:0.8;" x="57.6" xlink:href="#m3860f4dafe" y="295.378732"/>
      </g>
     </g>
     <g id="text_6">
      <!-- 0.0 -->
      <defs>
       <path d="M 10.6875 12.40625 
L 21 12.40625 
L 21 0 
L 10.6875 0 
z
" id="DejaVuSans-46"/>
      </defs>
      <g transform="translate(34.696875 299.17795)scale(0.1 -0.1)">
       <use xlink:href="#DejaVuSans-48"/>
       <use x="63.623047" xlink:href="#DejaVuSans-46"/>
       <use x="95.410156" xlink:href="#DejaVuSans-48"/>
      </g>
     </g>
    </g>
    <g id="ytick_2">
     <g id="line2d_6">
      <g>
       <use style="stroke:#000000;stroke-width:0.8;" x="57.6" xlink:href="#m3860f4dafe" y="261.23239"/>
      </g>
     </g>
     <g id="text_7">
      <!-- 2.5 -->
      <g transform="translate(34.696875 265.031609)scale(0.1 -0.1)">
       <use xlink:href="#DejaVuSans-50"/>
       <use x="63.623047" xlink:href="#DejaVuSans-46"/>
       <use x="95.410156" xlink:href="#DejaVuSans-53"/>
      </g>
     </g>
    </g>
    <g id="ytick_3">
     <g id="line2d_7">
      <g>
       <use style="stroke:#000000;stroke-width:0.8;" x="57.6" xlink:href="#m3860f4dafe" y="227.086049"/>
      </g>
     </g>
     <g id="text_8">
      <!-- 5.0 -->
      <g transform="translate(34.696875 230.885268)scale(0.1 -0.1)">
       <use xlink:href="#DejaVuSans-53"/>
       <use x="63.623047" xlink:href="#DejaVuSans-46"/>
       <use x="95.410156" xlink:href="#DejaVuSans-48"/>
      </g>
     </g>
    </g>
    <g id="ytick_4">
     <g id="line2d_8">
      <g>
       <use style="stroke:#000000;stroke-width:0.8;" x="57.6" xlink:href="#m3860f4dafe" y="192.939707"/>
      </g>
     </g>
     <g id="text_9">
      <!-- 7.5 -->
      <defs>
       <path d="M 8.203125 72.90625 
L 55.078125 72.90625 
L 55.078125 68.703125 
L 28.609375 0 
L 18.3125 0 
L 43.21875 64.59375 
L 8.203125 64.59375 
z
" id="DejaVuSans-55"/>
      </defs>
      <g transform="translate(34.696875 196.738926)scale(0.1 -0.1)">
       <use xlink:href="#DejaVuSans-55"/>
       <use x="63.623047" xlink:href="#DejaVuSans-46"/>
       <use x="95.410156" xlink:href="#DejaVuSans-53"/>
      </g>
     </g>
    </g>
    <g id="ytick_5">
     <g id="line2d_9">
      <g>
       <use style="stroke:#000000;stroke-width:0.8;" x="57.6" xlink:href="#m3860f4dafe" y="158.793366"/>
      </g>
     </g>
     <g id="text_10">
      <!-- 10.0 -->
      <g transform="translate(28.334375 162.592585)scale(0.1 -0.1)">
       <use xlink:href="#DejaVuSans-49"/>
       <use x="63.623047" xlink:href="#DejaVuSans-48"/>
       <use x="127.246094" xlink:href="#DejaVuSans-46"/>
       <use x="159.033203" xlink:href="#DejaVuSans-48"/>
      </g>
     </g>
    </g>
    <g id="ytick_6">
     <g id="line2d_10">
      <g>
       <use style="stroke:#000000;stroke-width:0.8;" x="57.6" xlink:href="#m3860f4dafe" y="124.647024"/>
      </g>
     </g>
     <g id="text_11">
      <!-- 12.5 -->
      <g transform="translate(28.334375 128.446243)scale(0.1 -0.1)">
       <use xlink:href="#DejaVuSans-49"/>
       <use x="63.623047" xlink:href="#DejaVuSans-50"/>
       <use x="127.246094" xlink:href="#DejaVuSans-46"/>
       <use x="159.033203" xlink:href="#DejaVuSans-53"/>
      </g>
     </g>
    </g>
    <g id="ytick_7">
     <g id="line2d_11">
      <g>
       <use style="stroke:#000000;stroke-width:0.8;" x="57.6" xlink:href="#m3860f4dafe" y="90.500683"/>
      </g>
     </g>
     <g id="text_12">
      <!-- 15.0 -->
      <g transform="translate(28.334375 94.299902)scale(0.1 -0.1)">
       <use xlink:href="#DejaVuSans-49"/>
       <use x="63.623047" xlink:href="#DejaVuSans-53"/>
       <use x="127.246094" xlink:href="#DejaVuSans-46"/>
       <use x="159.033203" xlink:href="#DejaVuSans-48"/>
      </g>
     </g>
    </g>
    <g id="ytick_8">
     <g id="line2d_12">
      <g>
       <use style="stroke:#000000;stroke-width:0.8;" x="57.6" xlink:href="#m3860f4dafe" y="56.354341"/>
      </g>
     </g>
     <g id="text_13">
      <!-- 17.5 -->
      <g transform="translate(28.334375 60.15356)scale(0.1 -0.1)">
       <use xlink:href="#DejaVuSans-49"/>
       <use x="63.623047" xlink:href="#DejaVuSans-55"/>
       <use x="127.246094" xlink:href="#DejaVuSans-46"/>
       <use x="159.033203" xlink:href="#DejaVuSans-53"/>
      </g>
     </g>
    </g>
    <g id="text_14">
     <!-- Depth [m] -->
     <defs>
      <path d="M 19.671875 64.796875 
L 19.671875 8.109375 
L 31.59375 8.109375 
Q 46.6875 8.109375 53.6875 14.9375 
Q 60.6875 21.78125 60.6875 36.53125 
Q 60.6875 51.171875 53.6875 57.984375 
Q 46.6875 64.796875 31.59375 64.796875 
z
M 9.8125 72.90625 
L 30.078125 72.90625 
Q 51.265625 72.90625 61.171875 64.09375 
Q 71.09375 55.28125 71.09375 36.53125 
Q 71.09375 17.671875 61.125 8.828125 
Q 51.171875 0 30.078125 0 
L 9.8125 0 
z
" id="DejaVuSans-68"/>
      <path d="M 18.109375 8.203125 
L 18.109375 -20.796875 
L 9.078125 -20.796875 
L 9.078125 54.6875 
L 18.109375 54.6875 
L 18.109375 46.390625 
Q 20.953125 51.265625 25.265625 53.625 
Q 29.59375 56 35.59375 56 
Q 45.5625 56 51.78125 48.09375 
Q 58.015625 40.1875 58.015625 27.296875 
Q 58.015625 14.40625 51.78125 6.484375 
Q 45.5625 -1.421875 35.59375 -1.421875 
Q 29.59375 -1.421875 25.265625 0.953125 
Q 20.953125 3.328125 18.109375 8.203125 
z
M 48.6875 27.296875 
Q 48.6875 37.203125 44.609375 42.84375 
Q 40.53125 48.484375 33.40625 48.484375 
Q 26.265625 48.484375 22.1875 42.84375 
Q 18.109375 37.203125 18.109375 27.296875 
Q 18.109375 17.390625 22.1875 11.75 
Q 26.265625 6.109375 33.40625 6.109375 
Q 40.53125 6.109375 44.609375 11.75 
Q 48.6875 17.390625 48.6875 27.296875 
z
" id="DejaVuSans-112"/>
      <path d="M 18.3125 70.21875 
L 18.3125 54.6875 
L 36.8125 54.6875 
L 36.8125 47.703125 
L 18.3125 47.703125 
L 18.3125 18.015625 
Q 18.3125 11.328125 20.140625 9.421875 
Q 21.96875 7.515625 27.59375 7.515625 
L 36.8125 7.515625 
L 36.8125 0 
L 27.59375 0 
Q 17.1875 0 13.234375 3.875 
Q 9.28125 7.765625 9.28125 18.015625 
L 9.28125 47.703125 
L 2.6875 47.703125 
L 2.6875 54.6875 
L 9.28125 54.6875 
L 9.28125 70.21875 
z
" id="DejaVuSans-116"/>
      <path d="M 54.890625 33.015625 
L 54.890625 0 
L 45.90625 0 
L 45.90625 32.71875 
Q 45.90625 40.484375 42.875 44.328125 
Q 39.84375 48.1875 33.796875 48.1875 
Q 26.515625 48.1875 22.3125 43.546875 
Q 18.109375 38.921875 18.109375 30.90625 
L 18.109375 0 
L 9.078125 0 
L 9.078125 75.984375 
L 18.109375 75.984375 
L 18.109375 46.1875 
Q 21.34375 51.125 25.703125 53.5625 
Q 30.078125 56 35.796875 56 
Q 45.21875 56 50.046875 50.171875 
Q 54.890625 44.34375 54.890625 33.015625 
z
" id="DejaVuSans-104"/>
      <path d="M 8.59375 75.984375 
L 29.296875 75.984375 
L 29.296875 69 
L 17.578125 69 
L 17.578125 -6.203125 
L 29.296875 -6.203125 
L 29.296875 -13.1875 
L 8.59375 -13.1875 
z
" id="DejaVuSans-91"/>
      <path d="M 30.421875 75.984375 
L 30.421875 -13.1875 
L 9.71875 -13.1875 
L 9.71875 -6.203125 
L 21.390625 -6.203125 
L 21.390625 69 
L 9.71875 69 
L 9.71875 75.984375 
z
" id="DejaVuSans-93"/>
     </defs>
     <g transform="translate(22.254687 200.118625)rotate(-90)scale(0.1 -0.1)">
      <use xlink:href="#DejaVuSans-68"/>
      <use x="77.001953" xlink:href="#DejaVuSans-101"/>
      <use x="138.525391" xlink:href="#DejaVuSans-112"/>
      <use x="202.001953" xlink:href="#DejaVuSans-116"/>
      <use x="241.210938" xlink:href="#DejaVuSans-104"/>
      <use x="304.589844" xlink:href="#DejaVuSans-32"/>
      <use x="336.376953" xlink:href="#DejaVuSans-91"/>
      <use x="375.390625" xlink:href="#DejaVuSans-109"/>
      <use x="472.802734" xlink:href="#DejaVuSans-93"/>
     </g>
    </g>
   </g>
   <g id="line2d_13">
    <path clip-path="url(#p7bc36b271d)" d="M 73.832726 295.406049 
L 74.551941 295.460683 
L 76.314022 295.419707 
L 101.486588 295.324098 
L 101.846195 295.29678 
L 102.206161 295.406049 
L 103.644238 295.378732 
L 104.003841 295.406049 
L 104.363811 295.310439 
L 105.083027 295.378732 
L 106.521461 295.337756 
L 107.959892 295.337756 
L 110.476788 295.351415 
L 110.836399 295.255805 
L 111.555973 295.378732 
L 111.915585 295.310439 
L 112.994404 295.378732 
L 123.422684 295.324098 
L 123.782288 295.228488 
L 124.141899 295.324098 
L 124.501503 295.255805 
L 124.861473 295.365073 
L 125.9403 295.283122 
L 127.018761 295.324098 
L 131.334057 295.269463 
L 136.368931 295.173854 
L 137.087788 295.173854 
L 138.526218 295.091902 
L 138.88583 295.173854 
L 139.605045 295.146537 
L 140.684231 295.160195 
L 142.122303 295.064585 
L 142.841518 295.091902 
L 146.07835 295.078244 
L 146.437958 293.99922 
L 146.797565 293.821659 
L 147.156815 293.808 
L 147.516781 293.958244 
L 147.876392 293.562146 
L 148.235641 295.11922 
L 148.595245 294.627512 
L 148.955215 293.603122 
L 149.314461 293.985561 
L 149.674431 293.603122 
L 150.03368 294.108488 
L 150.393288 292.920195 
L 150.752899 293.097756 
L 151.112862 293.534829 
L 151.472115 293.15239 
L 151.831718 293.739707 
L 152.19133 293.248 
L 152.550938 292.346537 
L 152.910545 295.187512 
L 153.270153 295.146537 
L 153.629761 293.61678 
L 153.989368 293.876293 
L 154.708588 294.805073 
L 155.427803 293.275317 
L 155.787766 293.61678 
L 156.147377 294.190439 
L 156.506989 294.067512 
L 156.866234 295.201171 
L 157.225842 294.27239 
L 157.585449 294.231415 
L 158.305023 293.835317 
L 158.664272 294.217756 
L 159.024242 293.971902 
L 159.38385 294.381659 
L 160.103065 294.368 
L 160.822639 293.876293 
L 161.181892 294.081171 
L 161.900745 294.149463 
L 162.260357 294.108488 
L 162.619961 293.630439 
L 162.979931 294.231415 
L 163.339176 293.603122 
L 164.058399 293.780683 
L 164.418003 292.647024 
L 164.777615 293.575805 
L 165.137218 294.053854 
L 165.49683 293.767024 
L 165.856796 295.201171 
L 166.216045 291.718244 
L 166.935619 293.930927 
L 167.294868 294.122146 
L 168.373692 293.889951 
L 169.092911 293.43922 
L 169.452518 293.985561 
L 169.812485 294.299707 
L 170.172092 293.917268 
L 170.531704 293.99922 
L 170.890949 293.780683 
L 171.610523 294.094829 
L 171.969772 293.876293 
L 172.329384 293.944585 
L 172.688988 293.876293 
L 173.408566 294.217756 
L 173.767815 293.739707 
L 174.127422 293.848976 
L 174.487389 294.122146 
L 174.846996 293.930927 
L 175.566216 293.917268 
L 176.285072 294.340683 
L 177.004288 293.534829 
L 177.363895 293.99922 
L 177.723503 293.944585 
L 178.083115 294.258732 
L 178.442719 294.17678 
L 178.80233 293.917268 
L 179.521545 291.93678 
L 180.240761 287.443122 
L 181.319946 276.133854 
L 183.836842 247.573854 
L 184.196808 244.609951 
L 185.99485 242.137756 
L 186.713703 241.427512 
L 187.074032 241.53678 
L 187.433281 242.438244 
L 187.792889 243.694829 
L 188.152138 244.405073 
L 188.512108 244.15922 
L 188.871357 243.367024 
L 189.950176 240.061659 
L 190.310146 239.556293 
L 190.669392 240.184585 
L 191.388611 244.43239 
L 191.748219 245.169951 
L 192.108189 244.883122 
L 193.905869 240.758244 
L 194.265476 240.97678 
L 194.625084 241.35922 
L 194.984692 242.028488 
L 195.344299 241.905561 
L 195.703907 239.925073 
L 196.063877 237.05678 
L 196.782734 228.725073 
L 198.221165 207.185561 
L 198.581135 204.371902 
L 199.299988 200.984585 
L 199.659599 197.911415 
L 200.738419 186.47922 
L 201.09803 184.621659 
L 201.457638 185.331902 
L 202.177212 190.768 
L 202.536461 192.734829 
L 202.896427 193.117268 
L 203.255676 191.806049 
L 203.615288 188.487024 
L 204.334862 178.270439 
L 205.053719 168.531902 
L 205.41333 165.93678 
L 205.773293 164.35239 
L 206.132545 161.798244 
L 206.851761 153.848976 
L 207.570976 145.544585 
L 207.930943 144.492878 
L 208.29055 144.492878 
L 208.649799 144.902634 
L 209.009407 144.38361 
L 209.728622 141.897756 
L 210.088234 141.843122 
L 210.807449 146.06361 
L 211.167416 146.89678 
L 211.527023 146.022634 
L 212.246239 140.777756 
L 212.605488 138.155317 
L 212.965096 137.404098 
L 214.40353 145.681171 
L 214.763496 146.036293 
L 215.122746 144.629463 
L 215.48307 141.269463 
L 216.561539 127.556293 
L 216.920788 126.204098 
L 217.280392 127.501659 
L 217.999607 133.511415 
L 218.359219 135.560195 
L 218.719185 134.877268 
L 219.078793 132.090927 
L 219.438046 127.815805 
L 219.798008 125.166049 
L 220.157261 124.278244 
L 220.516865 124.824585 
L 220.876476 125.138732 
L 221.23608 124.920195 
L 221.595692 125.234341 
L 221.955658 126.081171 
L 222.314907 124.373854 
L 223.034122 115.495805 
L 223.753338 110.756293 
L 224.112949 111.34361 
L 224.472557 112.764098 
L 224.832165 113.255805 
L 225.191772 111.958244 
L 225.55138 109.636293 
L 225.910988 105.962146 
L 226.989811 89.763122 
L 227.349419 86.553366 
L 228.068996 84.163122 
L 228.428246 83.930927 
L 228.787853 84.067512 
L 229.14782 84.490927 
L 229.507427 85.39239 
L 229.866676 85.569951 
L 230.226288 84.55922 
L 231.305107 76.43239 
L 231.664719 76.514341 
L 233.462761 85.173854 
L 233.823086 85.474341 
L 234.182335 84.846049 
L 234.901192 82.892878 
L 235.260796 82.701659 
L 235.620407 83.739707 
L 235.980373 85.214829 
L 236.69923 86.252878 
L 237.059196 86.375805 
L 237.418808 86.020683 
L 237.778412 85.146537 
L 238.137665 84.764098 
L 238.497272 85.187512 
L 238.85688 85.925073 
L 239.576454 89.134829 
L 239.936066 88.38361 
L 240.295311 86.621659 
L 241.014885 87.140683 
L 241.374496 85.58361 
L 242.093712 80.748488 
L 242.453678 81.240195 
L 243.531784 85.29678 
L 243.891392 85.460683 
L 244.251003 85.419707 
L 244.610607 85.556293 
L 244.970577 86.007024 
L 245.329823 86.758244 
L 245.689793 88.069463 
L 246.409008 91.593366 
L 246.768261 92.30361 
L 247.128223 92.330927 
L 247.487835 91.197268 
L 248.566658 84.245073 
L 248.926266 83.302634 
L 249.285515 83.671415 
L 250.364338 87.304585 
L 251.083553 88.766049 
L 251.443165 88.506537 
L 252.521988 84.422634 
L 252.881596 83.521171 
L 253.24192 83.070439 
L 253.600811 83.166049 
L 254.320385 84.299707 
L 254.679634 85.105561 
L 255.398849 85.884098 
L 255.758461 85.556293 
L 256.118069 84.955317 
L 256.837284 82.906537 
L 257.556858 78.494829 
L 258.275719 86.567024 
L 258.635323 91.83922 
L 258.995293 94.325073 
L 259.354538 93.669463 
L 259.714149 93.683122 
L 260.073757 94.407024 
L 260.792976 109.294829 
L 261.15258 110.209951 
L 261.51255 108.939707 
L 261.871796 105.702634 
L 262.231766 100.498732 
L 263.31023 76.43239 
L 263.669838 74.779707 
L 264.389053 80.229463 
L 264.749023 76.227512 
L 265.108269 74.001171 
L 265.468239 73.864585 
L 265.827484 76.213854 
L 266.187454 79.888 
L 266.546703 82.100683 
L 266.906311 81.240195 
L 267.265919 76.924098 
L 267.625526 74.697756 
L 267.985134 74.492878 
L 268.3451 72.457756 
L 269.063961 71.39239 
L 269.423569 72.51239 
L 269.783176 74.492878 
L 270.143143 77.156293 
L 270.502392 78.822634 
L 270.862 78.098732 
L 271.221607 76.596293 
L 271.581219 76.528 
L 272.300434 83.61678 
L 272.6604 83.862634 
L 273.01965 84.682146 
L 273.379253 87.946537 
L 273.738865 88.574829 
L 274.098473 75.585561 
L 274.45808 78.221659 
L 274.818047 71.351415 
L 275.177296 72.553366 
L 275.536907 70.900683 
L 275.896873 64.371902 
L 276.256123 60.588488 
L 276.616089 58.689951 
L 276.975338 54.933854 
L 277.334946 53.568 
L 277.694553 54.961171 
L 278.414127 56.422634 
L 278.77338 56.149463 
L 279.133343 57.474341 
L 279.492954 57.556293 
L 279.852203 56.122146 
L 280.211811 55.370927 
L 280.571419 55.862634 
L 280.931385 58.007024 
L 281.650242 60.274341 
L 282.00985 61.011902 
L 282.369457 61.134829 
L 283.088676 58.184585 
L 283.448284 59.127024 
L 283.80825 60.738732 
L 284.886715 61.886049 
L 285.606289 63.866537 
L 285.965538 65.79239 
L 286.684753 71.009951 
L 287.044365 71.378732 
L 287.404331 70.668488 
L 288.123188 65.437268 
L 288.482796 67.035317 
L 289.561981 73.728 
L 289.921227 74.533854 
L 290.280838 74.779707 
L 290.640442 74.356293 
L 291.000412 74.124098 
L 291.719269 73.113366 
L 292.078876 72.539707 
L 292.438484 71.651902 
L 292.798096 71.105561 
L 293.1577 71.078244 
L 293.517311 71.337756 
L 293.877277 70.846049 
L 294.236526 69.097756 
L 294.955742 62.99239 
L 295.31535 61.722146 
L 295.674957 61.968 
L 296.034565 63.347512 
L 296.754143 66.721171 
L 297.473 68.428488 
L 297.832966 68.619707 
L 298.552185 68.565073 
L 298.91143 68.250927 
L 299.2714 67.786537 
L 299.63065 67.513366 
L 299.990616 68.100683 
L 300.709469 70.204098 
L 301.069439 71.501659 
L 301.429047 72.23922 
L 302.507511 70.231415 
L 302.867123 70.354341 
L 303.586338 71.665561 
L 303.945942 72.894829 
L 304.305553 73.714341 
L 304.66552 74.083122 
L 305.024769 74.069463 
L 305.384735 74.274341 
L 305.744343 74.970927 
L 306.4632 75.558244 
L 306.82317 75.995317 
L 307.182777 76.008976 
L 307.542027 77.688976 
L 308.62085 88.820683 
L 309.340065 95.048976 
L 309.700031 95.964098 
L 310.059643 96.046049 
L 310.419247 94.516293 
L 310.7785 92.39922 
L 311.138107 94.939707 
L 312.5769 116.301659 
L 313.295753 133.880195 
L 313.656082 144.042146 
L 314.014969 142.717268 
L 314.37458 132.254829 
L 314.734547 129.400195 
L 315.453403 145.462634 
L 316.172977 169.556293 
L 316.532227 177.464585 
L 316.891838 180.537756 
L 317.251442 181.097756 
L 317.611053 180.141659 
L 317.970657 177.724098 
L 318.330269 179.390439 
L 318.690235 185.63239 
L 319.7687 211.761171 
L 320.487915 224.55922 
L 321.207134 235.390439 
L 321.92635 248.54361 
L 322.645565 254.894829 
L 323.005173 260.535805 
L 323.724388 283.35922 
L 324.084358 290.379707 
L 324.443607 293.889951 
L 324.803215 293.71239 
L 325.162823 294.231415 
L 325.52243 294.067512 
L 325.882038 294.968976 
L 326.601616 295.132878 
L 328.7589 295.078244 
L 329.478119 295.11922 
L 331.27652 295.201171 
L 331.995373 295.187512 
L 333.433811 295.132878 
L 334.153027 295.214829 
L 337.749462 295.310439 
L 338.828289 295.324098 
L 374.033924 295.419707 
L 374.393528 295.447024 
L 374.753139 295.310439 
L 375.112743 295.406049 
L 376.551178 295.378732 
L 379.428043 295.433366 
L 380.866474 295.310439 
L 381.58569 295.378732 
L 382.304909 295.378732 
L 383.024124 295.419707 
L 385.541382 295.310439 
L 386.260597 295.39239 
L 398.48727 295.365073 
L 398.48727 295.365073 
" style="fill:none;stroke:#1f77b4;stroke-linecap:square;stroke-width:1.5;"/>
   </g>
   <g id="patch_3">
    <path d="M 57.6 307.584 
L 57.6 41.472 
" style="fill:none;stroke:#000000;stroke-linecap:square;stroke-linejoin:miter;stroke-width:0.8;"/>
   </g>
   <g id="patch_4">
    <path d="M 414.72 307.584 
L 414.72 41.472 
" style="fill:none;stroke:#000000;stroke-linecap:square;stroke-linejoin:miter;stroke-width:0.8;"/>
   </g>
   <g id="patch_5">
    <path d="M 57.599998 307.584 
L 414.719997 307.584 
" style="fill:none;stroke:#000000;stroke-linecap:square;stroke-linejoin:miter;stroke-width:0.8;"/>
   </g>
   <g id="patch_6">
    <path d="M 57.599998 41.472 
L 414.719997 41.472 
" style="fill:none;stroke:#000000;stroke-linecap:square;stroke-linejoin:miter;stroke-width:0.8;"/>
   </g>
   <g id="text_15">
    <!-- Depth chart -->
    <defs>
     <path d="M 48.78125 52.59375 
L 48.78125 44.1875 
Q 44.96875 46.296875 41.140625 47.34375 
Q 37.3125 48.390625 33.40625 48.390625 
Q 24.65625 48.390625 19.8125 42.84375 
Q 14.984375 37.3125 14.984375 27.296875 
Q 14.984375 17.28125 19.8125 11.734375 
Q 24.65625 6.203125 33.40625 6.203125 
Q 37.3125 6.203125 41.140625 7.25 
Q 44.96875 8.296875 48.78125 10.40625 
L 48.78125 2.09375 
Q 45.015625 0.34375 40.984375 -0.53125 
Q 36.96875 -1.421875 32.421875 -1.421875 
Q 20.0625 -1.421875 12.78125 6.34375 
Q 5.515625 14.109375 5.515625 27.296875 
Q 5.515625 40.671875 12.859375 48.328125 
Q 20.21875 56 33.015625 56 
Q 37.15625 56 41.109375 55.140625 
Q 45.0625 54.296875 48.78125 52.59375 
z
" id="DejaVuSans-99"/>
     <path d="M 34.28125 27.484375 
Q 23.390625 27.484375 19.1875 25 
Q 14.984375 22.515625 14.984375 16.5 
Q 14.984375 11.71875 18.140625 8.90625 
Q 21.296875 6.109375 26.703125 6.109375 
Q 34.1875 6.109375 38.703125 11.40625 
Q 43.21875 16.703125 43.21875 25.484375 
L 43.21875 27.484375 
z
M 52.203125 31.203125 
L 52.203125 0 
L 43.21875 0 
L 43.21875 8.296875 
Q 40.140625 3.328125 35.546875 0.953125 
Q 30.953125 -1.421875 24.3125 -1.421875 
Q 15.921875 -1.421875 10.953125 3.296875 
Q 6 8.015625 6 15.921875 
Q 6 25.140625 12.171875 29.828125 
Q 18.359375 34.515625 30.609375 34.515625 
L 43.21875 34.515625 
L 43.21875 35.40625 
Q 43.21875 41.609375 39.140625 45 
Q 35.0625 48.390625 27.6875 48.390625 
Q 23 48.390625 18.546875 47.265625 
Q 14.109375 46.140625 10.015625 43.890625 
L 10.015625 52.203125 
Q 14.9375 54.109375 19.578125 55.046875 
Q 24.21875 56 28.609375 56 
Q 40.484375 56 46.34375 49.84375 
Q 52.203125 43.703125 52.203125 31.203125 
z
" id="DejaVuSans-97"/>
     <path d="M 41.109375 46.296875 
Q 39.59375 47.171875 37.8125 47.578125 
Q 36.03125 48 33.890625 48 
Q 26.265625 48 22.1875 43.046875 
Q 18.109375 38.09375 18.109375 28.8125 
L 18.109375 0 
L 9.078125 0 
L 9.078125 54.6875 
L 18.109375 54.6875 
L 18.109375 46.1875 
Q 20.953125 51.171875 25.484375 53.578125 
Q 30.03125 56 36.53125 56 
Q 37.453125 56 38.578125 55.875 
Q 39.703125 55.765625 41.0625 55.515625 
z
" id="DejaVuSans-114"/>
    </defs>
    <g transform="translate(200.380313 35.472)scale(0.12 -0.12)">
     <use xlink:href="#DejaVuSans-68"/>
     <use x="77.001953" xlink:href="#DejaVuSans-101"/>
     <use x="138.525391" xlink:href="#DejaVuSans-112"/>
     <use x="202.001953" xlink:href="#DejaVuSans-116"/>
     <use x="241.210938" xlink:href="#DejaVuSans-104"/>
     <use x="304.589844" xlink:href="#DejaVuSans-32"/>
     <use x="336.376953" xlink:href="#DejaVuSans-99"/>
     <use x="391.357422" xlink:href="#DejaVuSans-104"/>
     <use x="454.736328" xlink:href="#DejaVuSans-97"/>
     <use x="516.015625" xlink:href="#DejaVuSans-114"/>
     <use x="557.128906" xlink:href="#DejaVuSans-116"/>
    </g>
   </g>
   <g id="legend_1">
    <g id="patch_7">
     <path d="M 346.612188 64.150125 
L 407.72 64.150125 
Q 409.72 64.150125 409.72 62.150125 
L 409.72 48.472 
Q 409.72 46.472 407.72 46.472 
L 346.612188 46.472 
Q 344.612188 46.472 344.612188 48.472 
L 344.612188 62.150125 
Q 344.612188 64.150125 346.612188 64.150125 
z
" style="fill:#ffffff;opacity:0.8;stroke:#cccccc;stroke-linejoin:miter;"/>
    </g>
    <g id="line2d_14">
     <path d="M 348.612188 54.570438 
L 368.612188 54.570438 
" style="fill:none;stroke:#1f77b4;stroke-linecap:square;stroke-width:1.5;"/>
    </g>
    <g id="line2d_15"/>
    <g id="text_16">
     <!-- depth -->
     <defs>
      <path d="M 45.40625 46.390625 
L 45.40625 75.984375 
L 54.390625 75.984375 
L 54.390625 0 
L 45.40625 0 
L 45.40625 8.203125 
Q 42.578125 3.328125 38.25 0.953125 
Q 33.9375 -1.421875 27.875 -1.421875 
Q 17.96875 -1.421875 11.734375 6.484375 
Q 5.515625 14.40625 5.515625 27.296875 
Q 5.515625 40.1875 11.734375 48.09375 
Q 17.96875 56 27.875 56 
Q 33.9375 56 38.25 53.625 
Q 42.578125 51.265625 45.40625 46.390625 
z
M 14.796875 27.296875 
Q 14.796875 17.390625 18.875 11.75 
Q 22.953125 6.109375 30.078125 6.109375 
Q 37.203125 6.109375 41.296875 11.75 
Q 45.40625 17.390625 45.40625 27.296875 
Q 45.40625 37.203125 41.296875 42.84375 
Q 37.203125 48.484375 30.078125 48.484375 
Q 22.953125 48.484375 18.875 42.84375 
Q 14.796875 37.203125 14.796875 27.296875 
z
" id="DejaVuSans-100"/>
     </defs>
     <g transform="translate(376.612188 58.070438)scale(0.1 -0.1)">
      <use xlink:href="#DejaVuSans-100"/>
      <use x="63.476562" xlink:href="#DejaVuSans-101"/>
      <use x="125" xlink:href="#DejaVuSans-112"/>
      <use x="188.476562" xlink:href="#DejaVuSans-116"/>
      <use x="227.685547" xlink:href="#DejaVuSans-104"/>
     </g>
    </g>
   </g>
  </g>
 </g>
 <defs>
  <clipPath id="p7bc36b271d">
   <rect height="266.112" width="357.12" x="57.6" y="41.472"/>
  </clipPath>
 </defs>
</svg>
