<svg id="Layer_1" data-name="Layer 1" xmlns="http://www.w3.org/2000/svg" viewBox="0 0 239.45 103.21"><defs><style>.cls-1{fill:#10395e}</style></defs><path class="cls-1" d="M30.41 41.23v9a.09.09 0 0 0 .13.09 2.46 2.46 0 0 1 1.09-.19 2.41 2.41 0 1 1-2.56 2.16V33.75c0-6.63-3.48-10.23-8.88-11.45a.09.09 0 0 0-.12.09v27a30.39 30.39 0 0 0 .43 6.31 11.4 11.4 0 1 0 10-14.51.09.09 0 0 0-.09.09M53.69 50.39v1.9A2.39 2.39 0 0 0 56 54.94a.11.11 0 0 1 .09.1v8.81a.11.11 0 0 1-.1.1h-.1a11.39 11.39 0 0 1-10.76-8.26 30.47 30.47 0 0 1-.43-6.32V28.09a.1.1 0 0 1 .09-.1h8.81a.11.11 0 0 1 .1.1zM69.33 64h.18a11.38 11.38 0 0 0 10.76-8.26 30 30 0 0 0 .44-6.32v-7.64a.1.1 0 0 0-.1-.09H71.8a.09.09 0 0 0-.09.09v10.51A2.4 2.4 0 0 1 69.4 55h-.16a2.4 2.4 0 0 1-2.3-2.66V41.78a.1.1 0 0 0-.1-.09H58a.09.09 0 0 0-.1.09v7.58a30.47 30.47 0 0 0 .43 6.32 11.39 11.39 0 0 0 10.76 8.26zM94 47.69A4.87 4.87 0 0 1 98.11 50a.1.1 0 0 1-.09.14h-8.13a.09.09 0 0 1-.08-.14A4.86 4.86 0 0 1 94 47.69m0-6.52a11.39 11.39 0 1 0 10.71 15.25.1.1 0 0 0-.09-.13H97.05a4.87 4.87 0 0 1-7.25-1.22.1.1 0 0 1 .09-.15H105a.09.09 0 0 0 .09-.08 11.57 11.57 0 0 0 .24-2.3A11.39 11.39 0 0 0 94 41.17M143.22 47.69a4.87 4.87 0 0 1 4.15 2.31.1.1 0 0 1-.09.14h-8.13a.09.09 0 0 1-.08-.14 4.86 4.86 0 0 1 4.15-2.33m0-6.52a11.39 11.39 0 1 0 10.71 15.25.1.1 0 0 0-.09-.13H146.31a4.87 4.87 0 0 1-7.25-1.22.1.1 0 0 1 .09-.15h15.13a.09.09 0 0 0 .09-.08 11.57 11.57 0 0 0 .24-2.3 11.39 11.39 0 0 0-11.39-11.39M129.88 41.69h-8.8a.09.09 0 0 0-.1.09v10.51a2.4 2.4 0 0 1-2.31 2.71h-.16a2.4 2.4 0 0 1-2.3-2.66V41.78a.1.1 0 0 0-.1-.09h-8.8a.09.09 0 0 0-.1.09v7.58a30.47 30.47 0 0 0 .43 6.32A11.41 11.41 0 0 0 118.4 64h.39a12.14 12.14 0 0 0 2.19-.26v7.67c0 6.63 3.48 10.22 8.88 11.45a.11.11 0 0 0 .12-.1V41.78a.1.1 0 0 0-.1-.09M174.67 46.81c0-3.39 2-5.31 6.33-5.31s6.36 1.5 6.36 5.5H185c0-2.61-1.11-3.42-3.93-3.42-2.67 0-4 1-4 3.21s.84 3.12 4.35 3.6c5.13.69 6.39 2.28 6.39 5.64 0 3.9-2.07 5.55-6.75 5.55-4.17 0-6.66-1.29-6.66-5.58h2.4c0 2.76 1.41 3.48 4.26 3.48 3.24 0 4.32-1 4.32-3.45 0-2.28-.6-3.24-4.68-3.81-4.38-.58-6.03-2.11-6.03-5.41zM191.42 61.3V41.8h5.88c4.65 0 7.23 1.32 7.23 7v5.58c0 5.64-2.58 7-7.23 7zm2.4-17.4v15.3h3.45c3.27 0 4.86-1 4.86-4.74v-5.88c0-4-1.77-4.68-4.86-4.68zM212.87 51.28l7.8 10h-2.88a101.13 101.13 0 0 0-7-8.94v8.96h-2.4V41.8h2.4v8.64l6.78-8.64h2.91z"/></svg>